<mxfile host="Electron" agent="Mozilla/5.0 (Windows NT 10.0; Win64; x64) AppleWebKit/537.36 (KHTML, like Gecko) draw.io/26.2.2 Chrome/134.0.6998.178 Electron/35.1.2 Safari/537.36" version="26.2.2">
  <diagram name="Page-1" id="nmM2ICLNHWc5m7DLxpwW">
    <mxGraphModel dx="874" dy="1663" grid="1" gridSize="10" guides="1" tooltips="1" connect="1" arrows="1" fold="1" page="1" pageScale="1" pageWidth="850" pageHeight="1100" math="0" shadow="0">
      <root>
        <mxCell id="0" />
        <mxCell id="1" parent="0" />
        <mxCell id="YvsCt8MaSUw-SsX8eenD-76" value="" style="rounded=0;whiteSpace=wrap;html=1;" parent="1" vertex="1">
          <mxGeometry x="45" y="-80" width="915" height="1070" as="geometry" />
        </mxCell>
        <mxCell id="YvsCt8MaSUw-SsX8eenD-75" value="" style="rounded=0;whiteSpace=wrap;html=1;fillColor=#6d8764;fontColor=#ffffff;strokeColor=#3A5431;" parent="1" vertex="1">
          <mxGeometry x="196.25" y="-50" width="610" height="1000" as="geometry" />
        </mxCell>
        <mxCell id="YvsCt8MaSUw-SsX8eenD-52" value="" style="endArrow=open;dashed=1;html=1;rounded=0;entryX=0.306;entryY=1.003;entryDx=0;entryDy=0;entryPerimeter=0;exitX=0.5;exitY=0;exitDx=0;exitDy=0;curved=1;endFill=0;" parent="1" source="YvsCt8MaSUw-SsX8eenD-49" target="YvsCt8MaSUw-SsX8eenD-21" edge="1">
          <mxGeometry width="50" height="50" relative="1" as="geometry">
            <mxPoint x="360" y="230" as="sourcePoint" />
            <mxPoint x="410" y="180" as="targetPoint" />
            <Array as="points">
              <mxPoint x="470" y="170" />
              <mxPoint x="550" y="140" />
            </Array>
          </mxGeometry>
        </mxCell>
        <mxCell id="YvsCt8MaSUw-SsX8eenD-53" value="&amp;lt;&amp;lt;includes&amp;gt;&amp;gt;" style="edgeLabel;html=1;align=center;verticalAlign=middle;resizable=0;points=[];" parent="YvsCt8MaSUw-SsX8eenD-52" vertex="1" connectable="0">
          <mxGeometry x="-0.7236" y="-2" relative="1" as="geometry">
            <mxPoint x="13" y="-4" as="offset" />
          </mxGeometry>
        </mxCell>
        <mxCell id="YvsCt8MaSUw-SsX8eenD-2" value="Customer" style="shape=umlActor;verticalLabelPosition=bottom;verticalAlign=top;html=1;outlineConnect=0;" parent="1" vertex="1">
          <mxGeometry x="90" y="80" width="30" height="60" as="geometry" />
        </mxCell>
        <mxCell id="YvsCt8MaSUw-SsX8eenD-3" value="Customer&amp;nbsp;&lt;div&gt;Support Specialist&lt;/div&gt;" style="shape=umlActor;verticalLabelPosition=bottom;verticalAlign=top;html=1;outlineConnect=0;" parent="1" vertex="1">
          <mxGeometry x="880" y="80" width="30" height="60" as="geometry" />
        </mxCell>
        <mxCell id="YvsCt8MaSUw-SsX8eenD-6" value="&lt;div&gt;Query&#39;s&lt;/div&gt;" style="ellipse;whiteSpace=wrap;html=1;fillColor=#d5e8d4;strokeColor=#82b366;" parent="1" vertex="1">
          <mxGeometry x="230" y="70" width="120" height="80" as="geometry" />
        </mxCell>
        <mxCell id="YvsCt8MaSUw-SsX8eenD-7" value="" style="endArrow=none;html=1;rounded=0;entryX=0;entryY=0.5;entryDx=0;entryDy=0;" parent="1" source="YvsCt8MaSUw-SsX8eenD-2" target="YvsCt8MaSUw-SsX8eenD-6" edge="1">
          <mxGeometry width="50" height="50" relative="1" as="geometry">
            <mxPoint x="400" y="320" as="sourcePoint" />
            <mxPoint x="450" y="270" as="targetPoint" />
          </mxGeometry>
        </mxCell>
        <mxCell id="YvsCt8MaSUw-SsX8eenD-8" value="Luggage&lt;div&gt;Query&lt;/div&gt;" style="ellipse;whiteSpace=wrap;html=1;fillColor=#d5e8d4;strokeColor=#82b366;" parent="1" vertex="1">
          <mxGeometry x="260" y="640" width="120" height="80" as="geometry" />
        </mxCell>
        <mxCell id="YvsCt8MaSUw-SsX8eenD-11" value="gate loction&lt;div&gt;query&lt;/div&gt;" style="ellipse;whiteSpace=wrap;html=1;fillColor=#d5e8d4;strokeColor=#82b366;" parent="1" vertex="1">
          <mxGeometry x="425" y="20" width="105" height="60" as="geometry" />
        </mxCell>
        <mxCell id="YvsCt8MaSUw-SsX8eenD-12" value="Flight ticket&lt;div&gt;query&lt;/div&gt;" style="ellipse;whiteSpace=wrap;html=1;fillColor=#d5e8d4;strokeColor=#82b366;" parent="1" vertex="1">
          <mxGeometry x="432.5" y="100" width="90" height="50" as="geometry" />
        </mxCell>
        <mxCell id="YvsCt8MaSUw-SsX8eenD-13" value="Name change" style="ellipse;whiteSpace=wrap;html=1;fillColor=#d5e8d4;strokeColor=#82b366;" parent="1" vertex="1">
          <mxGeometry x="320" y="510" width="90" height="50" as="geometry" />
        </mxCell>
        <mxCell id="YvsCt8MaSUw-SsX8eenD-14" value="Flight Detail Update" style="ellipse;whiteSpace=wrap;html=1;fillColor=#d5e8d4;strokeColor=#82b366;" parent="1" vertex="1">
          <mxGeometry x="360" y="390" width="125.5" height="70" as="geometry" />
        </mxCell>
        <mxCell id="YvsCt8MaSUw-SsX8eenD-15" value="" style="endArrow=none;html=1;rounded=0;exitX=1;exitY=0;exitDx=0;exitDy=0;entryX=0;entryY=0.5;entryDx=0;entryDy=0;" parent="1" source="YvsCt8MaSUw-SsX8eenD-6" target="YvsCt8MaSUw-SsX8eenD-11" edge="1">
          <mxGeometry width="50" height="50" relative="1" as="geometry">
            <mxPoint x="400" y="320" as="sourcePoint" />
            <mxPoint x="450" y="270" as="targetPoint" />
          </mxGeometry>
        </mxCell>
        <mxCell id="YvsCt8MaSUw-SsX8eenD-16" value="" style="endArrow=none;html=1;rounded=0;exitX=1;exitY=0.5;exitDx=0;exitDy=0;entryX=0;entryY=0.5;entryDx=0;entryDy=0;" parent="1" source="YvsCt8MaSUw-SsX8eenD-6" target="YvsCt8MaSUw-SsX8eenD-12" edge="1">
          <mxGeometry width="50" height="50" relative="1" as="geometry">
            <mxPoint x="400" y="320" as="sourcePoint" />
            <mxPoint x="450" y="270" as="targetPoint" />
          </mxGeometry>
        </mxCell>
        <mxCell id="YvsCt8MaSUw-SsX8eenD-17" value="Flight Delay&lt;div&gt;query&lt;/div&gt;" style="ellipse;whiteSpace=wrap;html=1;fillColor=#d5e8d4;strokeColor=#82b366;" parent="1" vertex="1">
          <mxGeometry x="420" y="190" width="102.5" height="60" as="geometry" />
        </mxCell>
        <mxCell id="YvsCt8MaSUw-SsX8eenD-18" value="" style="endArrow=none;html=1;rounded=0;exitX=1;exitY=1;exitDx=0;exitDy=0;entryX=0;entryY=0.5;entryDx=0;entryDy=0;" parent="1" source="YvsCt8MaSUw-SsX8eenD-6" target="YvsCt8MaSUw-SsX8eenD-17" edge="1">
          <mxGeometry width="50" height="50" relative="1" as="geometry">
            <mxPoint x="400" y="220" as="sourcePoint" />
            <mxPoint x="450" y="170" as="targetPoint" />
          </mxGeometry>
        </mxCell>
        <mxCell id="YvsCt8MaSUw-SsX8eenD-21" value="Information&lt;div&gt;Update&lt;/div&gt;" style="ellipse;whiteSpace=wrap;html=1;fillColor=#f8cecc;strokeColor=#b85450;" parent="1" vertex="1">
          <mxGeometry x="665" y="40" width="105" height="60" as="geometry" />
        </mxCell>
        <mxCell id="YvsCt8MaSUw-SsX8eenD-22" value="" style="endArrow=none;html=1;rounded=0;exitX=1;exitY=0.5;exitDx=0;exitDy=0;" parent="1" source="YvsCt8MaSUw-SsX8eenD-21" edge="1">
          <mxGeometry width="50" height="50" relative="1" as="geometry">
            <mxPoint x="580" y="200" as="sourcePoint" />
            <mxPoint x="880" y="130" as="targetPoint" />
          </mxGeometry>
        </mxCell>
        <mxCell id="YvsCt8MaSUw-SsX8eenD-24" value="" style="endArrow=none;html=1;rounded=0;exitX=1;exitY=0;exitDx=0;exitDy=0;entryX=0;entryY=0;entryDx=0;entryDy=0;curved=1;" parent="1" source="YvsCt8MaSUw-SsX8eenD-11" target="YvsCt8MaSUw-SsX8eenD-21" edge="1">
          <mxGeometry width="50" height="50" relative="1" as="geometry">
            <mxPoint x="533" y="135" as="sourcePoint" />
            <mxPoint x="628" y="100" as="targetPoint" />
            <Array as="points">
              <mxPoint x="560" y="20" />
            </Array>
          </mxGeometry>
        </mxCell>
        <mxCell id="YvsCt8MaSUw-SsX8eenD-25" value="New Ticket" style="ellipse;whiteSpace=wrap;html=1;fillColor=#f8cecc;strokeColor=#b85450;" parent="1" vertex="1">
          <mxGeometry x="540" y="480" width="100" height="60" as="geometry" />
        </mxCell>
        <mxCell id="YvsCt8MaSUw-SsX8eenD-28" value="" style="endArrow=none;html=1;rounded=0;exitX=1;exitY=0.5;exitDx=0;exitDy=0;" parent="1" source="YvsCt8MaSUw-SsX8eenD-37" target="YvsCt8MaSUw-SsX8eenD-3" edge="1">
          <mxGeometry width="50" height="50" relative="1" as="geometry">
            <mxPoint x="795.0000000000011" y="175" as="sourcePoint" />
            <mxPoint x="560" y="120" as="targetPoint" />
          </mxGeometry>
        </mxCell>
        <mxCell id="YvsCt8MaSUw-SsX8eenD-29" value="New Flight" style="ellipse;whiteSpace=wrap;html=1;fillColor=#f8cecc;strokeColor=#b85450;" parent="1" vertex="1">
          <mxGeometry x="600" y="390" width="75" height="50" as="geometry" />
        </mxCell>
        <mxCell id="YvsCt8MaSUw-SsX8eenD-32" value="" style="endArrow=none;dashed=1;html=1;rounded=0;exitX=0.5;exitY=1;exitDx=0;exitDy=0;entryX=0.5;entryY=0;entryDx=0;entryDy=0;endFill=1;startArrow=open;startFill=0;" parent="1" source="YvsCt8MaSUw-SsX8eenD-29" target="YvsCt8MaSUw-SsX8eenD-25" edge="1">
          <mxGeometry width="50" height="50" relative="1" as="geometry">
            <mxPoint x="510" y="170" as="sourcePoint" />
            <mxPoint x="560" y="120" as="targetPoint" />
          </mxGeometry>
        </mxCell>
        <mxCell id="YvsCt8MaSUw-SsX8eenD-66" value="&amp;lt;&amp;lt;extends&amp;gt;&amp;gt;" style="edgeLabel;html=1;align=center;verticalAlign=middle;resizable=0;points=[];" parent="YvsCt8MaSUw-SsX8eenD-32" vertex="1" connectable="0">
          <mxGeometry x="0.2587" y="-1" relative="1" as="geometry">
            <mxPoint as="offset" />
          </mxGeometry>
        </mxCell>
        <mxCell id="YvsCt8MaSUw-SsX8eenD-34" value="" style="endArrow=none;html=1;rounded=0;exitX=1;exitY=0;exitDx=0;exitDy=0;entryX=0.5;entryY=1;entryDx=0;entryDy=0;" parent="1" source="YvsCt8MaSUw-SsX8eenD-17" target="YvsCt8MaSUw-SsX8eenD-21" edge="1">
          <mxGeometry width="50" height="50" relative="1" as="geometry">
            <mxPoint x="540" y="164" as="sourcePoint" />
            <mxPoint x="622" y="120" as="targetPoint" />
          </mxGeometry>
        </mxCell>
        <mxCell id="YvsCt8MaSUw-SsX8eenD-37" value="Refund" style="ellipse;whiteSpace=wrap;html=1;fillColor=#f8cecc;strokeColor=#b85450;" parent="1" vertex="1">
          <mxGeometry x="650" y="190" width="100" height="60" as="geometry" />
        </mxCell>
        <mxCell id="YvsCt8MaSUw-SsX8eenD-38" value="Flight Cancellation" style="ellipse;whiteSpace=wrap;html=1;fillColor=#d5e8d4;strokeColor=#82b366;" parent="1" vertex="1">
          <mxGeometry x="432.5" y="270" width="102.5" height="60" as="geometry" />
        </mxCell>
        <mxCell id="YvsCt8MaSUw-SsX8eenD-41" value="" style="endArrow=none;html=1;rounded=0;exitX=1;exitY=0.5;exitDx=0;exitDy=0;" parent="1" source="YvsCt8MaSUw-SsX8eenD-12" target="YvsCt8MaSUw-SsX8eenD-21" edge="1">
          <mxGeometry width="50" height="50" relative="1" as="geometry">
            <mxPoint x="510" y="250" as="sourcePoint" />
            <mxPoint x="560" y="200" as="targetPoint" />
          </mxGeometry>
        </mxCell>
        <mxCell id="YvsCt8MaSUw-SsX8eenD-43" value="" style="endArrow=none;dashed=1;html=1;rounded=0;exitX=0;exitY=0.5;exitDx=0;exitDy=0;entryX=1;entryY=0.5;entryDx=0;entryDy=0;" parent="1" source="YvsCt8MaSUw-SsX8eenD-37" target="YvsCt8MaSUw-SsX8eenD-17" edge="1">
          <mxGeometry width="50" height="50" relative="1" as="geometry">
            <mxPoint x="510" y="250" as="sourcePoint" />
            <mxPoint x="560" y="200" as="targetPoint" />
          </mxGeometry>
        </mxCell>
        <mxCell id="YvsCt8MaSUw-SsX8eenD-44" value="&amp;lt;&amp;lt;includes&amp;gt;&amp;gt;" style="edgeLabel;html=1;align=center;verticalAlign=middle;resizable=0;points=[];" parent="YvsCt8MaSUw-SsX8eenD-43" vertex="1" connectable="0">
          <mxGeometry x="-0.3313" y="1" relative="1" as="geometry">
            <mxPoint x="-16" y="2" as="offset" />
          </mxGeometry>
        </mxCell>
        <mxCell id="YvsCt8MaSUw-SsX8eenD-45" value="" style="endArrow=open;dashed=1;html=1;rounded=0;exitX=0;exitY=1;exitDx=0;exitDy=0;entryX=1;entryY=0.5;entryDx=0;entryDy=0;endFill=0;startFill=0;startArrow=none;" parent="1" source="YvsCt8MaSUw-SsX8eenD-37" target="YvsCt8MaSUw-SsX8eenD-38" edge="1">
          <mxGeometry width="50" height="50" relative="1" as="geometry">
            <mxPoint x="641" y="290" as="sourcePoint" />
            <mxPoint x="530" y="280" as="targetPoint" />
          </mxGeometry>
        </mxCell>
        <mxCell id="YvsCt8MaSUw-SsX8eenD-61" value="&amp;lt;&amp;lt;includes&amp;gt;&amp;gt;" style="edgeLabel;html=1;align=center;verticalAlign=middle;resizable=0;points=[];" parent="YvsCt8MaSUw-SsX8eenD-45" vertex="1" connectable="0">
          <mxGeometry x="-0.0721" y="-2" relative="1" as="geometry">
            <mxPoint as="offset" />
          </mxGeometry>
        </mxCell>
        <mxCell id="YvsCt8MaSUw-SsX8eenD-48" value="" style="endArrow=none;html=1;rounded=0;entryX=0;entryY=0.5;entryDx=0;entryDy=0;" parent="1" target="YvsCt8MaSUw-SsX8eenD-49" edge="1">
          <mxGeometry width="50" height="50" relative="1" as="geometry">
            <mxPoint x="120" y="110" as="sourcePoint" />
            <mxPoint x="240.0000000000001" y="250" as="targetPoint" />
          </mxGeometry>
        </mxCell>
        <mxCell id="YvsCt8MaSUw-SsX8eenD-49" value="&lt;span style=&quot;background-color: transparent; color: light-dark(rgb(0, 0, 0), rgb(255, 255, 255));&quot;&gt;Requests&lt;/span&gt;" style="ellipse;whiteSpace=wrap;html=1;fillColor=#d5e8d4;strokeColor=#82b366;" parent="1" vertex="1">
          <mxGeometry x="240" y="270" width="120" height="80" as="geometry" />
        </mxCell>
        <mxCell id="YvsCt8MaSUw-SsX8eenD-51" value="" style="endArrow=none;html=1;rounded=0;exitX=1;exitY=0.5;exitDx=0;exitDy=0;entryX=0;entryY=0.5;entryDx=0;entryDy=0;" parent="1" source="YvsCt8MaSUw-SsX8eenD-49" target="YvsCt8MaSUw-SsX8eenD-38" edge="1">
          <mxGeometry width="50" height="50" relative="1" as="geometry">
            <mxPoint x="360" y="310" as="sourcePoint" />
            <mxPoint x="410" y="260" as="targetPoint" />
          </mxGeometry>
        </mxCell>
        <mxCell id="YvsCt8MaSUw-SsX8eenD-56" value="" style="endArrow=none;dashed=1;html=1;rounded=0;entryX=0.5;entryY=1;entryDx=0;entryDy=0;exitX=0.5;exitY=0;exitDx=0;exitDy=0;" parent="1" source="YvsCt8MaSUw-SsX8eenD-13" target="YvsCt8MaSUw-SsX8eenD-14" edge="1">
          <mxGeometry width="50" height="50" relative="1" as="geometry">
            <mxPoint x="715.5" y="310" as="sourcePoint" />
            <mxPoint x="765.5" y="260" as="targetPoint" />
          </mxGeometry>
        </mxCell>
        <mxCell id="YvsCt8MaSUw-SsX8eenD-57" value="&amp;lt;&amp;lt;includes&amp;gt;&amp;gt;" style="edgeLabel;html=1;align=center;verticalAlign=middle;resizable=0;points=[];" parent="YvsCt8MaSUw-SsX8eenD-56" vertex="1" connectable="0">
          <mxGeometry x="0.2617" relative="1" as="geometry">
            <mxPoint x="-5" y="5" as="offset" />
          </mxGeometry>
        </mxCell>
        <mxCell id="YvsCt8MaSUw-SsX8eenD-58" value="Date/time change" style="ellipse;whiteSpace=wrap;html=1;fillColor=#d5e8d4;strokeColor=#82b366;" parent="1" vertex="1">
          <mxGeometry x="432.5" y="525" width="90" height="50" as="geometry" />
        </mxCell>
        <mxCell id="YvsCt8MaSUw-SsX8eenD-59" value="" style="endArrow=none;dashed=1;html=1;rounded=0;entryX=0.5;entryY=1;entryDx=0;entryDy=0;exitX=0.5;exitY=0;exitDx=0;exitDy=0;" parent="1" source="YvsCt8MaSUw-SsX8eenD-58" target="YvsCt8MaSUw-SsX8eenD-14" edge="1">
          <mxGeometry width="50" height="50" relative="1" as="geometry">
            <mxPoint x="715.5" y="310" as="sourcePoint" />
            <mxPoint x="765.5" y="260" as="targetPoint" />
          </mxGeometry>
        </mxCell>
        <mxCell id="YvsCt8MaSUw-SsX8eenD-60" value="&amp;lt;&amp;lt;includes&amp;gt;&amp;gt;" style="edgeLabel;html=1;align=center;verticalAlign=middle;resizable=0;points=[];" parent="YvsCt8MaSUw-SsX8eenD-59" vertex="1" connectable="0">
          <mxGeometry x="-0.3024" relative="1" as="geometry">
            <mxPoint x="-1" as="offset" />
          </mxGeometry>
        </mxCell>
        <mxCell id="YvsCt8MaSUw-SsX8eenD-62" value="" style="endArrow=none;html=1;rounded=0;entryX=1;entryY=1;entryDx=0;entryDy=0;exitX=0;exitY=0;exitDx=0;exitDy=0;" parent="1" source="YvsCt8MaSUw-SsX8eenD-14" target="YvsCt8MaSUw-SsX8eenD-49" edge="1">
          <mxGeometry width="50" height="50" relative="1" as="geometry">
            <mxPoint x="490" y="430" as="sourcePoint" />
            <mxPoint x="540" y="380" as="targetPoint" />
          </mxGeometry>
        </mxCell>
        <mxCell id="YvsCt8MaSUw-SsX8eenD-63" value="Fee&amp;nbsp; payment" style="ellipse;whiteSpace=wrap;html=1;fillColor=#f8cecc;strokeColor=#b85450;" parent="1" vertex="1">
          <mxGeometry x="650" y="320" width="100" height="60" as="geometry" />
        </mxCell>
        <mxCell id="YvsCt8MaSUw-SsX8eenD-67" value="" style="endArrow=none;dashed=1;html=1;rounded=0;exitX=1;exitY=1;exitDx=0;exitDy=0;entryX=0;entryY=0.5;entryDx=0;entryDy=0;" parent="1" source="YvsCt8MaSUw-SsX8eenD-14" target="YvsCt8MaSUw-SsX8eenD-25" edge="1">
          <mxGeometry width="50" height="50" relative="1" as="geometry">
            <mxPoint x="490" y="430" as="sourcePoint" />
            <mxPoint x="540" y="380" as="targetPoint" />
          </mxGeometry>
        </mxCell>
        <mxCell id="YvsCt8MaSUw-SsX8eenD-68" value="&amp;lt;&amp;lt;includes&amp;gt;&amp;gt;" style="edgeLabel;html=1;align=center;verticalAlign=middle;resizable=0;points=[];" parent="YvsCt8MaSUw-SsX8eenD-67" vertex="1" connectable="0">
          <mxGeometry x="0.1295" y="1" relative="1" as="geometry">
            <mxPoint as="offset" />
          </mxGeometry>
        </mxCell>
        <mxCell id="YvsCt8MaSUw-SsX8eenD-69" value="" style="endArrow=none;html=1;rounded=0;exitX=1;exitY=0.5;exitDx=0;exitDy=0;entryX=0;entryY=0.5;entryDx=0;entryDy=0;" parent="1" source="YvsCt8MaSUw-SsX8eenD-14" target="YvsCt8MaSUw-SsX8eenD-63" edge="1">
          <mxGeometry width="50" height="50" relative="1" as="geometry">
            <mxPoint x="490" y="430" as="sourcePoint" />
            <mxPoint x="540" y="380" as="targetPoint" />
          </mxGeometry>
        </mxCell>
        <mxCell id="YvsCt8MaSUw-SsX8eenD-70" value="Add more Luggage" style="ellipse;whiteSpace=wrap;html=1;fillColor=#d5e8d4;strokeColor=#82b366;" parent="1" vertex="1">
          <mxGeometry x="545" y="650" width="120" height="80" as="geometry" />
        </mxCell>
        <mxCell id="YvsCt8MaSUw-SsX8eenD-73" value="" style="endArrow=none;html=1;rounded=0;entryX=0.5;entryY=1;entryDx=0;entryDy=0;exitX=1;exitY=0;exitDx=0;exitDy=0;" parent="1" source="YvsCt8MaSUw-SsX8eenD-70" target="YvsCt8MaSUw-SsX8eenD-63" edge="1">
          <mxGeometry width="50" height="50" relative="1" as="geometry">
            <mxPoint x="490" y="640" as="sourcePoint" />
            <mxPoint x="540" y="590" as="targetPoint" />
          </mxGeometry>
        </mxCell>
        <mxCell id="YvsCt8MaSUw-SsX8eenD-74" value="" style="endArrow=none;html=1;rounded=0;entryX=0;entryY=0;entryDx=0;entryDy=0;" parent="1" target="YvsCt8MaSUw-SsX8eenD-8" edge="1">
          <mxGeometry width="50" height="50" relative="1" as="geometry">
            <mxPoint x="120" y="110" as="sourcePoint" />
            <mxPoint x="250" y="320" as="targetPoint" />
          </mxGeometry>
        </mxCell>
        <mxCell id="YvsCt8MaSUw-SsX8eenD-77" value="Text" style="text;html=1;align=center;verticalAlign=middle;whiteSpace=wrap;rounded=0;" parent="1" vertex="1">
          <mxGeometry x="490" y="40" width="60" height="30" as="geometry" />
        </mxCell>
        <mxCell id="YvsCt8MaSUw-SsX8eenD-78" value="Airline Ticket management" style="text;html=1;align=center;verticalAlign=middle;whiteSpace=wrap;rounded=0;" parent="1" vertex="1">
          <mxGeometry x="447.5" y="-40" width="60" height="30" as="geometry" />
        </mxCell>
        <mxCell id="YvsCt8MaSUw-SsX8eenD-80" value="" style="endArrow=none;html=1;rounded=0;exitX=1;exitY=0;exitDx=0;exitDy=0;" parent="1" source="YvsCt8MaSUw-SsX8eenD-63" edge="1">
          <mxGeometry width="50" height="50" relative="1" as="geometry">
            <mxPoint x="790" y="270" as="sourcePoint" />
            <mxPoint x="880" y="130" as="targetPoint" />
          </mxGeometry>
        </mxCell>
        <mxCell id="nDoEofmhQ9d-8AAyIwMq-3" value="" style="endArrow=none;html=1;rounded=0;exitX=0.5;exitY=1;exitDx=0;exitDy=0;entryX=0;entryY=0.5;entryDx=0;entryDy=0;" edge="1" parent="1" source="YvsCt8MaSUw-SsX8eenD-8" target="YvsCt8MaSUw-SsX8eenD-70">
          <mxGeometry width="50" height="50" relative="1" as="geometry">
            <mxPoint x="420" y="830" as="sourcePoint" />
            <mxPoint x="470" y="780" as="targetPoint" />
          </mxGeometry>
        </mxCell>
        <mxCell id="nDoEofmhQ9d-8AAyIwMq-4" value="Luggage&lt;div&gt;Regulation&lt;/div&gt;&lt;div&gt;guidance&lt;/div&gt;" style="ellipse;whiteSpace=wrap;html=1;fillColor=#d5e8d4;strokeColor=#82b366;" vertex="1" parent="1">
          <mxGeometry x="442.5" y="590" width="120" height="80" as="geometry" />
        </mxCell>
        <mxCell id="nDoEofmhQ9d-8AAyIwMq-6" value="" style="endArrow=none;html=1;rounded=0;exitX=1;exitY=0.5;exitDx=0;exitDy=0;entryX=0;entryY=0.5;entryDx=0;entryDy=0;" edge="1" parent="1" source="YvsCt8MaSUw-SsX8eenD-8" target="nDoEofmhQ9d-8AAyIwMq-4">
          <mxGeometry width="50" height="50" relative="1" as="geometry">
            <mxPoint x="420" y="530" as="sourcePoint" />
            <mxPoint x="470" y="480" as="targetPoint" />
          </mxGeometry>
        </mxCell>
      </root>
    </mxGraphModel>
  </diagram>
</mxfile>
